# xmcd
#
# Track frame offsets:
#	150
#	27725
#	47961
#	76469
#	95600
#	118314
#	145542
#	154602
#	177984
#	227192
#	271295
#	279689
# Disc length: 4504 seconds
# Revision: 1
# Processed by: cddbd v1.5.1PL2 Copyright (c) Steve Scherf et al.
#
# Submitted via: libkcddb 0.31
#
DISCID=ad11960c
DTITLE=Maggie Bell - Live At The Rainbow 1974
DYEAR=1974
DGENRE=Blues
TTITLE0=Coming On Strong
TTITLE1=Wishing Well
TTITLE2=As The Years Go Passing By
TTITLE3=I Was In Chains
TTITLE4=Suicide Sal
TTITLE5=I Saw Him Standing There
TTITLE6=The Preacher
TTITLE7=Penicillin Blues
TTITLE8=Soul Medley
TTITLE9=The Ghetto
TTITLE10=Aileem Mochree
TTITLE11=Shout
EXTD=YEAR: 1974
EXTT0=
EXTT1=
EXTT2=
EXTT3=
EXTT4=
EXTT5=
EXTT6=
EXTT7=
EXTT8=
EXTT9=
EXTT10=
EXTT11=
PLAYORDER=
